<?xml version="1.0" encoding="utf-8"?>
<svg id="master-artboard" viewBox="0 0 1400 980" version="1.1" xmlns="http://www.w3.org/2000/svg" x="0px" y="0px" width="1400px" height="980px" enable-background="new 0 0 1400 980">
<g transform="matrix(1, 0, 0, 0.9999999999999999, 2.842170943040401e-14, 0)">
		<path d="M 0 0 H 1399.995972 V 980 H 0 V 0 Z" fill="#F1F0D4"/>
	</g><path fill="#C7E0FF" d="M367.344,403.385h-7.491h-34.256h-18.9c-9.456,0-17.125-7.662-17.125-17.123&#10;&#9;&#9;c0-9.458-7.671-17.127-17.131-17.127h-66.658c-9.458,0-17.131,7.669-17.131,17.127c0,9.461-7.664,17.123-17.123,17.123h-0.004&#10;&#9;&#9;h-13.506h-34.258h-14.165c-9.458,0-17.125,7.669-17.125,17.127c0,9.461,7.667,17.131,17.125,17.131h18.898h34.256h204.594l0,0&#10;&#9;&#9;c9.462,0,17.129-7.67,17.129-17.131C384.473,411.054,376.806,403.385,367.344,403.385z" transform="matrix(1, 0, 0, 0.9999999999999999, 2.842170943040401e-14, 0)"/><path fill="#C7E0FF" d="M1227.467,403.385h-7.995h-36.53h-20.159c-10.085,0-18.265-8.172-18.265-18.266&#10;&#9;&#9;c0-10.085-8.18-18.265-18.27-18.265h-71.09c-10.094,0-18.273,8.18-18.273,18.265c0,10.093-8.173,18.266-18.262,18.266h-0.008&#10;&#9;&#9;h-14.401h-36.539h-15.105c-10.089,0-18.266,8.176-18.266,18.269c0,10.089,8.177,18.265,18.266,18.265h20.153h36.535h218.204h0.005&#10;&#9;&#9;c10.089,0,18.269-8.176,18.269-18.265C1245.735,411.561,1237.556,403.385,1227.467,403.385z" transform="matrix(1, 0, 0, 0.9999999999999999, 2.842170943040401e-14, 0)"/><path fill="#C7E0FF" d="M472.573,812.607H259.527c-14.148,0-25.621,11.468-25.621,25.614c0,14.149-11.463,25.616-25.614,25.616&#10;&#9;&#9;h-0.004h-14.211h-0.004c-14.145,0-25.614,11.464-25.614,25.617c0,14.146,11.469,25.614,25.614,25.614h93.719&#10;&#9;&#9;c14.148,0,25.615-11.468,25.615-25.614c0-14.153,11.471-25.617,25.619-25.617h133.541h0.006c14.148,0,25.609-11.467,25.609-25.616&#10;&#9;&#9;C498.182,824.075,486.721,812.607,472.573,812.607z" transform="matrix(1, 0, 0, 0.9999999999999999, 2.842170943040401e-14, 0)"/><path fill="#C7E0FF" d="M1191.508,781.386h-6.623h-19.992c-10.003,0-18.114-8.106-18.114-18.115&#10;&#9;&#9;c0-10.008-8.11-18.114-18.114-18.114h-75.338c-10.003,0-18.114,8.106-18.114,18.114c0,10.009-8.11,18.115-18.114,18.115l0,0&#10;&#9;&#9;h-19.113h-36.231h-19.988h-34.704c-10.003,0-18.114,8.106-18.114,18.113c0,10.008,8.111,18.115,18.114,18.115h17.124&#10;&#9;&#9;c10.003,0,18.117,8.109,18.117,18.118c0,10.003,8.107,18.109,18.11,18.109h19.993h36.231h19.106h0.008&#10;&#9;&#9;c9.999,0,18.105-8.099,18.113-18.095c0-0.008,0-0.011,0-0.015c0-0.008,0-0.012,0-0.016c0.005-9.996,8.111-18.103,18.114-18.103&#10;&#9;&#9;h0.004h75.33l0,0h44.195l0,0c10.009,0,18.118-8.107,18.118-18.115C1209.626,789.492,1201.517,781.386,1191.508,781.386z" transform="matrix(1, 0, 0, 0.9999999999999999, 2.842170943040401e-14, 0)"/><path d="M 294.35400390625 555.0280151367188 L 279.3240051269531 555.4840087890625 L 275.0950012207031 569.9089965820312 L 261.85101318359375 562.7860107421875 L 250.9759979248047 573.166015625 L 243.0659942626953 560.3790283203125 L 228.45799255371094 563.9290161132812 L 228.00100708007812 548.8989868164062 L 213.57400512695312 544.6719970703125 L 220.6929931640625 531.4320068359375 L 210.31199645996094 520.552978515625 L 223.10400390625 512.6400146484375 L 219.5489959716797 498.0369873046875 L 234.5780029296875 497.5799865722656 L 238.81199645996094 483.1470031738281 L 252.0500030517578 490.27099609375 L 262.9280090332031 479.89599609375 L 270.8370056152344 492.67498779296875 L 285.447998046875 489.125 L 285.9049987792969 504.15301513671875 L 300.3299865722656 508.39300537109375 L 293.2080078125 521.6290283203125 L 303.5880126953125 532.5 L 290.802001953125 540.4140014648438 Z" fill="#607029" transform="matrix(1, 0, 0, 0.9999999999999999, 2.842170943040401e-14, 0)"/><path d="M 284.54998779296875 553.8939819335938 L 273.4620056152344 554.22998046875 L 270.3399963378906 564.8770141601562 L 260.5669860839844 559.6190185546875 L 252.5399932861328 567.281005859375 L 246.70399475097656 557.8419799804688 L 235.92300415039062 560.4669799804688 L 235.59100341796875 549.3800048828125 L 224.94400024414062 546.2550048828125 L 230.1959991455078 536.4840087890625 L 222.53799438476562 528.4509887695312 L 231.97300720214844 522.6240234375 L 229.35400390625 511.8429870605469 L 240.44500732421875 511.50201416015625 L 243.5659942626953 500.8630065917969 L 253.3350067138672 506.1090087890625 L 261.3609924316406 498.4549865722656 L 267.1969909667969 507.885986328125 L 277.97900390625 505.2760009765625 L 278.31298828125 516.364013671875 L 288.9599914550781 519.4769897460938 L 283.7040100097656 529.2559814453125 L 291.3659973144531 537.2769775390625 L 281.9289855957031 543.1160278320312 Z" fill="#4E5C21" transform="matrix(1, 0, 0, 0.9999999999999999, 2.842170943040401e-14, 0)"/><path fill="#AFE9DD" d="M538.449,552.136V360.563c-17.692,0-35.383,11.417-48.803,34.25l-92.477,157.322H538.449z" transform="matrix(1, 0, 0, 0.9999999999999999, 2.842170943040401e-14, 0)"/><path fill="#299691" d="M481.136,552.136l-87.48-267.556c-8.494-25.974-19.692-38.966-30.884-38.966v306.522H481.136z" transform="matrix(1, 0, 0, 0.9999999999999999, 2.842170943040401e-14, 0)"/><path d="M 381.47100830078125 552.135986328125 L 381.47100830078125 326.1889953613281 L 455.3450012207031 552.135986328125 Z" fill="#25827E" transform="matrix(1, 0, 0, 0.9999999999999999, 2.842170943040401e-14, 0)"/><path fill="#2EABA5" d="M362.772,552.136V245.614c-11.194,0-22.392,12.992-30.884,38.966l-87.481,267.556H362.772z" transform="matrix(1, 0, 0, 0.9999999999999999, 2.842170943040401e-14, 0)"/><path fill="#607029" d="M306.825,550.034c0,0.895,0.033,1.776,0.066,2.667h74.581v-77.316&#10;&#9;&#9;C340.246,475.385,306.825,508.808,306.825,550.034z" transform="matrix(1, 0, 0, 0.9999999999999999, 2.842170943040401e-14, 0)"/><path fill="#536123" d="M456.119,550.034c0-41.227-33.419-74.649-74.648-74.649v77.316h74.583&#10;&#9;&#9;C456.083,551.811,456.119,550.929,456.119,550.034z" transform="matrix(1, 0, 0, 0.9999999999999999, 2.842170943040401e-14, 0)"/><path fill="#607029" d="M391.469,542.705V486.16c28.543,4.444,50.963,27.634,54.24,56.545H391.469z" transform="matrix(1, 0, 0, 0.9999999999999999, 2.842170943040401e-14, 0)"/><path fill="#9ACFC3" d="M679.729,552.136l-92.478-157.322c-13.42-22.833-31.111-34.25-48.803-34.25v191.572H679.729z" transform="matrix(1, 0, 0, 0.9999999999999999, 2.842170943040401e-14, 0)"/><path fill="#8BBAB0" d="M557.149,552.531V406.18c4.998,4.197,9.75,10.004,13.981,17.201l75.913,129.15H557.149z" transform="matrix(1, 0, 0, 0.9999999999999999, 2.842170943040401e-14, 0)"/><path fill="#7C7CAD" d="M1118.18,552.136l-130.807-182.13c-15.206-21.181-35.261-31.765-55.312-31.765v213.895H1118.18z" transform="matrix(1, 0, 0, 0.9999999999999999, 2.842170943040401e-14, 0)"/><path fill="#6B6B94" d="M950.766,551.978V380.157c7.831,4.007,15.129,10.542,21.416,19.292l109.545,152.529H950.766z" transform="matrix(1, 0, 0, 0.9999999999999999, 2.842170943040401e-14, 0)"/><path fill="#8B8CC2" d="M932.062,552.136V338.241c-20.05,0-40.099,10.584-55.31,31.765l-130.808,182.13H932.062z" transform="matrix(1, 0, 0, 0.9999999999999999, 2.842170943040401e-14, 0)"/><path fill="#C7E0FF" d="M979.657,196.532h-74.591h-10.352H776.567c-8.854,0-16.029-7.177-16.029-16.028v-2.849&#10;&#9;&#9;c0-8.85,7.175-16.027,16.029-16.027h11.939c22.446,0,40.649-18.204,40.649-40.65c0-22.447-18.203-40.642-40.649-40.642H595.26&#10;&#9;&#9;c-22.451,0-40.647,18.195-40.647,40.642c0,22.446,18.197,40.65,40.647,40.65h117.457c8.855,0,16.029,7.177,16.029,16.027v2.849&#10;&#9;&#9;c0,8.851-7.174,16.028-16.029,16.028h-7.599c-22.448,0-40.647,18.203-40.647,40.65c0,22.454,18.2,40.646,40.647,40.646h274.539&#10;&#9;&#9;c22.45,0,40.653-18.192,40.653-40.646C1020.311,214.735,1002.107,196.532,979.657,196.532z" transform="matrix(1, 0, 0, 0.9999999999999999, 2.842170943040401e-14, 0)"/><path fill="#299691" d="M887.119,552.136L766.824,158.313c-8.004-26.198-18.553-39.299-29.099-39.299v433.121H887.119z" transform="matrix(1, 0, 0, 0.9999999999999999, 2.842170943040401e-14, 0)"/><path d="M 756.426025390625 552.135986328125 L 756.426025390625 206.98399353027344 L 861.8510131835938 552.135986328125 Z" fill="#25827E" transform="matrix(1, 0, 0, 0.9999999999999999, 2.842170943040401e-14, 0)"/><path d="M 197.35400390625 81.90699768066406 L 219.68099975585938 98.125 L 247.27200317382812 98.125 L 255.80099487304688 124.36900329589844 L 278.12200927734375 140.58999633789062 L 269.5950012207031 166.83399963378906 L 278.12200927734375 193.0709991455078 L 255.80099487304688 209.29200744628906 L 247.27200317382812 235.5330047607422 L 219.68099975585938 235.5330047607422 L 197.35400390625 251.7570037841797 L 175.03199768066406 235.5330047607422 L 147.43800354003906 235.5330047607422 L 138.91600036621094 209.29200744628906 L 116.58699798583984 193.0709991455078 L 125.11599731445312 166.83399963378906 L 116.58699798583984 140.58999633789062 L 138.91600036621094 124.36900329589844 L 147.43800354003906 98.125 L 175.03199768066406 98.125 Z" fill="#E0A416" transform="matrix(1, 0, 0, 0.9999999999999999, 2.842170943040401e-14, 0)"/><path fill="#C7E0FF" d="M508.304,125.414c0,8.858-7.179,16.036-16.029,16.036h-66.122c-8.851,0-16.027-7.178-16.027-16.036v-1.997&#10;&#9;&#9;c0-8.851,7.176-16.028,16.027-16.028h66.122c8.85,0,16.029,7.177,16.029,16.028V125.414z" transform="matrix(1, 0, 0, 0.9999999999999999, 2.842170943040401e-14, 0)"/><path fill="#C7E0FF" d="M1289.39,635.015c0,7.53-6.102,13.631-13.624,13.631h-56.201c-7.522,0-13.62-6.101-13.62-13.631v-1.695&#10;&#9;&#9;c0-7.522,6.098-13.624,13.62-13.624h56.201c7.522,0,13.624,6.102,13.624,13.624V635.015z" transform="matrix(1, 0, 0, 0.9999999999999999, 2.842170943040401e-14, 0)"/><path fill="#C7E0FF" d="M228.546,712.536c0,11.947-9.682,21.626-21.616,21.626h-89.172c-11.936,0-21.612-9.679-21.612-21.626v-2.69&#10;&#9;&#9;c0-11.936,9.676-21.614,21.612-21.614h89.172c11.934,0,21.616,9.679,21.616,21.614V712.536z" transform="matrix(1, 0, 0, 0.9999999999999999, 2.842170943040401e-14, 0)"/><path fill="#C7E0FF" d="M923.387,150.803c0,8.85-7.175,16.028-16.028,16.028h-25.047c-8.851,0-16.028-7.178-16.028-16.028v-2.009&#10;&#9;&#9;c0-8.846,7.178-16.024,16.028-16.024h25.047c8.854,0,16.028,7.178,16.028,16.024V150.803z" transform="matrix(1, 0, 0, 0.9999999999999999, 2.842170943040401e-14, 0)"/><path fill="#C7E0FF" d="M591.177,225.018c0,8.85-7.178,16.027-16.029,16.027H534.07c-8.85,0-16.026-7.177-16.026-16.027v-2.01&#10;&#9;&#9;c0-8.846,7.176-16.024,16.026-16.024h41.078c8.852,0,16.029,7.178,16.029,16.024V225.018z" transform="matrix(1, 0, 0, 0.9999999999999999, 2.842170943040401e-14, 0)"/><path fill="#FBC132" d="M256.839,166.834c0,32.845-26.632,59.477-59.484,59.477s-59.484-26.631-59.484-59.477&#10;&#9;&#9;c0-32.856,26.631-59.484,59.484-59.484S256.839,133.978,256.839,166.834z" transform="matrix(1, 0, 0, 0.9999999999999999, 2.842170943040401e-14, 0)"/><path fill="#B5C748" d="M1164.273,574.024c0-12.171-9.872-22.047-22.06-22.047H233.866c-12.183,0-22.055,9.876-22.055,22.047&#10;&#9;&#9;c0,3.044,0.613,5.932,1.723,8.56h949.014C1163.658,579.956,1164.273,577.068,1164.273,574.024z" transform="matrix(1, 0, 0, 0.9999999999999999, 2.842170943040401e-14, 0)"/><path fill="#A1B340" d="M213.533,582.584c3.341,7.937,11.184,13.5,20.333,13.5h908.348c9.152,0,16.995-5.563,20.333-13.5H213.533z" transform="matrix(1, 0, 0, 0.9999999999999999, 2.842170943040401e-14, 0)"/><path d="M 765.4199829101562 742.2410278320312 L 752.9730224609375 794.1640014648438 L 720.875 825.6389770507812 L 720.875 883.0449829101562 L 776.8040161132812 831.97802734375 L 804.8560180664062 810.7379760742188 L 809.9639892578125 770.5640258789062 Z" fill="#473A29" transform="matrix(1, 0, 0, 0.9999999999999999, 2.842170943040401e-14, 0)"/><path d="M 580.2160034179688 756.4030151367188 L 547.2659912109375 735.1599731445312 L 516.3469848632812 772.1409912109375 L 516.3469848632812 863.8380126953125 L 598.4920043945312 828.43798828125 L 566.8590087890625 799.4990234375 Z" fill="#473A29" transform="matrix(1, 0, 0, 0.9999999999999999, 2.842170943040401e-14, 0)"/><path d="M 421.7070007324219 645.468017578125 L 403.89801025390625 627.3729858398438 L 378.1029968261719 640.7479858398438 L 365.6059875488281 675.3709716796875 L 378.1029968261719 722.22998046875 L 426.1889953613281 690.364990234375 L 409.2409973144531 664.35302734375 Z" fill="#473A29" transform="matrix(1, 0, 0, 0.9999999999999999, 2.842170943040401e-14, 0)"/><path d="M 745.1859741210938 609.3629760742188 L 747.6309814453125 596.083984375 L 715.1279907226562 596.083984375 L 715.1279907226562 609.0330200195312 Z" fill="#332A1D" transform="matrix(1, 0, 0, 0.9999999999999999, 2.842170943040401e-14, 0)"/><path d="M 715.1279907226562 641.4569702148438 L 706.2239990234375 662.7769775390625 L 736.9429931640625 677.333984375 L 767.6669921875 657.27099609375 L 739.6170043945312 639.5640258789062 L 745.1859741210938 609.3629760742188 L 715.1279907226562 609.0330200195312 Z" fill="#473A29" transform="matrix(1, 0, 0, 0.9999999999999999, 2.842170943040401e-14, 0)"/><path d="M 951.7789916992188 611.6199951171875 L 947.5440063476562 596.083984375 L 917.718994140625 596.083984375 L 911.5399780273438 611.1749877929688 Z" fill="#332A1D" transform="matrix(1, 0, 0, 0.9999999999999999, 2.842170943040401e-14, 0)"/><path d="M 901.68798828125 635.239013671875 L 933.7459716796875 662.7769775390625 L 933.7459716796875 686.8259887695312 L 969.3629760742188 686.8259887695312 L 993.4080200195312 662.7769775390625 L 960.9970092773438 645.468017578125 L 951.7789916992188 611.6199951171875 L 911.5399780273438 611.1749877929688 Z" fill="#473A29" transform="matrix(1, 0, 0, 0.9999999999999999, 2.842170943040401e-14, 0)"/><path d="M 920.072021484375 735.1599731445312 L 901.68798828125 795.739990234375 L 941.2949829101562 833.7420043945312 L 941.2949829101562 791.2659912109375 L 1007.6199951171875 749.8109741210938 L 1020.3109741210938 686.8259887695312 L 969.3629760742188 727.2899780273438 Z" fill="#473A29" transform="matrix(1, 0, 0, 0.9999999999999999, 2.842170943040401e-14, 0)"/><path fill="#574832" d="M951.779,611.62l9.218,33.848l32.411,17.31l-24.045,24.049h-35.617v-24.049l-32.059-27.538l9.853-24.064&#10;&#9;&#9;&#9;l-166.354-1.812l-5.568,30.201l28.05,17.707l-30.724,20.063l-30.72-14.557l8.904-21.32v-32.424l-463.496-5.063L307.98,722.23&#10;&#9;&#9;&#9;h70.123l-12.497-46.859l12.497-34.623l25.795-13.375l17.809,18.095l-12.466,18.885l16.949,26.013l46.079,69.038l-13.056,67.271&#10;&#9;&#9;&#9;l57.134,37.164v-91.697l30.919-36.98l32.95,21.243l-13.356,43.096l31.633,28.939l74.13,75.089l44.075-16.674l4.178-3.809v-57.406&#10;&#9;&#9;&#9;l32.098-31.475l12.447-51.923l44.544,28.323l-5.107,40.174l44.075,31.857l43.522,40.716l48.841-49.569l-39.607-38.002&#10;&#9;&#9;&#9;l18.385-60.58l49.291-7.87l50.947-40.464l45.318,20.445l-17.01-29.547l7.127-25.179l19.589-22.812l17.809,14.947l12.454,28.553&#10;&#9;&#9;&#9;l10.709-59.822L951.779,611.62z M619.398,674.798l-27.605,24.955l-38.292-8.656l-24.043,8.656l-29.386-39.33l28.494-8.66&#10;&#9;&#9;&#9;l23.155-16.523l37.402,9.442h40.072L619.398,674.798z M840.244,722.23l-36.511-22.478l32.944-36.976l16.032,24.049l48.978,21.75&#10;&#9;&#9;&#9;L840.244,722.23z" transform="matrix(1, 0, 0, 0.9999999999999999, 2.842170943040401e-14, 0)"/><path d="M 911.5399780273438 611.1749877929688 L 917.718994140625 596.083984375 L 747.6309814453125 596.083984375 L 745.1859741210938 609.3629760742188 Z" fill="#423626" transform="matrix(1, 0, 0, 0.9999999999999999, 2.842170943040401e-14, 0)"/><path d="M 1116.3070068359375 613.4119873046875 L 1119.4110107421875 596.083984375 L 947.5440063476562 596.083984375 L 951.7789916992188 611.6199951171875 Z" fill="#423626" transform="matrix(1, 0, 0, 0.9999999999999999, 2.842170943040401e-14, 0)"/><path d="M 715.1279907226562 596.083984375 L 247.875 596.083984375 L 251.6320037841797 603.969970703125 L 715.1279907226562 609.0330200195312 Z" fill="#423626" transform="matrix(1, 0, 0, 0.9999999999999999, 2.842170943040401e-14, 0)"/><path d="M 1075.3349609375 629.7340087890625 L 1055.7459716796875 652.5460205078125 L 1048.6190185546875 677.7249755859375 L 1065.6290283203125 707.27099609375 L 1071.324951171875 709.8419799804688 L 1105.385986328125 674.43798828125 L 1105.5980224609375 673.2340087890625 L 1093.14404296875 644.6820068359375 Z" fill="#473A29" transform="matrix(1, 0, 0, 0.9999999999999999, 2.842170943040401e-14, 0)"/><path d="M 551.719970703125 635.239013671875 L 528.5650024414062 651.7630004882812 L 500.0710144042969 660.4229736328125 L 529.4580078125 699.7529907226562 L 553.5 691.0969848632812 L 591.7930297851562 699.7529907226562 L 619.3980102539062 674.7979736328125 L 629.1939697265625 644.6820068359375 L 589.1220092773438 644.6820068359375 Z" fill="#473A29" transform="matrix(1, 0, 0, 0.9999999999999999, 2.842170943040401e-14, 0)"/><path d="M 836.677978515625 662.7769775390625 L 803.7329711914062 699.7529907226562 L 840.2440185546875 722.22998046875 L 901.68798828125 708.5759887695312 L 852.7100219726562 686.8259887695312 Z" fill="#473A29" transform="matrix(1, 0, 0, 0.9999999999999999, 2.842170943040401e-14, 0)"/><path fill="#2EABA5" d="M737.726,552.136V119.015c-10.552,0-21.102,13.101-29.102,39.299l-120.29,393.822H737.726z" transform="matrix(1, 0, 0, 0.9999999999999999, 2.842170943040401e-14, 0)"/><path fill="#7C7CAD" d="M910.755,477.155c0,2.028-1.65,3.674-3.675,3.674h-24.49c-2.024,0-3.67-1.646-3.67-3.674l0,0&#10;&#9;&#9;c0-2.029,1.646-3.67,3.67-3.67h24.49C909.104,473.484,910.755,475.126,910.755,477.155L910.755,477.155z" transform="matrix(1, 0, 0, 0.9999999999999999, 2.842170943040401e-14, 0)"/><path fill="#7C7CAD" d="M891.78,425.92c0,2.037-1.646,3.678-3.674,3.678H863.62c-2.028,0-3.674-1.642-3.674-3.678l0,0&#10;&#9;&#9;c0-2.025,1.646-3.67,3.674-3.67h24.486C890.135,422.25,891.78,423.896,891.78,425.92L891.78,425.92z" transform="matrix(1, 0, 0, 0.9999999999999999, 2.842170943040401e-14, 0)"/><path fill="#299691" d="M315.068,515.892c0,2.021-1.649,3.671-3.676,3.671h-24.486c-2.027,0-3.672-1.649-3.672-3.671l0,0&#10;&#9;&#9;c0-2.028,1.646-3.678,3.672-3.678h24.486C313.419,512.214,315.068,513.863,315.068,515.892L315.068,515.892z" transform="matrix(1, 0, 0, 0.9999999999999999, 2.842170943040401e-14, 0)"/><path fill="#299691" d="M346.901,402.196c0,2.029-1.647,3.674-3.675,3.674h-24.487c-2.027,0-3.67-1.646-3.67-3.674l0,0&#10;&#9;&#9;c0-2.028,1.644-3.678,3.67-3.678h24.487C345.254,398.519,346.901,400.168,346.901,402.196L346.901,402.196z" transform="matrix(1, 0, 0, 0.9999999999999999, 2.842170943040401e-14, 0)"/><path fill="#299691" d="M352.248,326.104c0,1.196-0.977,2.183-2.186,2.183h-14.554c-1.206,0-2.186-0.987-2.186-2.183l0,0&#10;&#9;&#9;c0-1.204,0.979-2.187,2.186-2.187h14.554C351.271,323.917,352.248,324.9,352.248,326.104L352.248,326.104z" transform="matrix(1, 0, 0, 0.9999999999999999, 2.842170943040401e-14, 0)"/><path fill="#299691" d="M345.639,472.981c0,2.028-1.644,3.678-3.676,3.678h-53.795c-2.029,0-3.67-1.649-3.67-3.678l0,0&#10;&#9;&#9;c0-2.029,1.641-3.674,3.67-3.674h53.795C343.996,469.308,345.639,470.953,345.639,472.981L345.639,472.981z" transform="matrix(1, 0, 0, 0.9999999999999999, 2.842170943040401e-14, 0)"/><path fill="#9ACFC3" d="M515.987,413.679c0,1.359-1.095,2.458-2.453,2.458H497.18c-1.353,0-2.453-1.1-2.453-2.458l0,0&#10;&#9;&#9;c0-1.355,1.1-2.447,2.453-2.447h16.354C514.892,411.232,515.987,412.324,515.987,413.679L515.987,413.679z" transform="matrix(1, 0, 0, 0.9999999999999999, 2.842170943040401e-14, 0)"/><path fill="#9ACFC3" d="M494.727,447.624c0,1.355-1.097,2.451-2.452,2.451H475.92c-1.354,0-2.453-1.096-2.453-2.451l0,0&#10;&#9;&#9;c0-1.359,1.099-2.455,2.453-2.455h16.354C493.629,445.169,494.727,446.265,494.727,447.624L494.727,447.624z" transform="matrix(1, 0, 0, 0.9999999999999999, 2.842170943040401e-14, 0)"/><path fill="#9ACFC3" d="M495.956,356.894c0,1.351-1.099,2.454-2.454,2.454h-31.175c-1.353,0-2.45-1.103-2.45-2.454l0,0&#10;&#9;&#9;c0-1.359,1.098-2.458,2.45-2.458h31.175C494.857,354.435,495.956,355.535,495.956,356.894L495.956,356.894z" transform="matrix(1, 0, 0, 0.9999999999999999, 2.842170943040401e-14, 0)"/><path fill="#9ACFC3" d="M523.399,481.808c0,1.355-1.098,2.454-2.455,2.454h-31.17c-1.355,0-2.457-1.099-2.457-2.454l0,0&#10;&#9;&#9;c0-1.351,1.102-2.447,2.457-2.447h31.17C522.301,479.361,523.399,480.457,523.399,481.808L523.399,481.808z" transform="matrix(1, 0, 0, 0.9999999999999999, 2.842170943040401e-14, 0)"/><path fill="#299691" d="M727.395,344.644c0,2.036-1.644,3.674-3.67,3.674h-24.489c-2.027,0-3.674-1.638-3.674-3.674l0,0&#10;&#9;&#9;c0-2.028,1.647-3.67,3.674-3.67h24.489C725.751,340.974,727.395,342.616,727.395,344.644L727.395,344.644z" transform="matrix(1, 0, 0, 0.9999999999999999, 2.842170943040401e-14, 0)"/><path fill="#299691" d="M695.647,360.563c0,2.028-1.646,3.674-3.676,3.674h-24.485c-2.028,0-3.672-1.646-3.672-3.674l0,0&#10;&#9;&#9;c0-2.028,1.644-3.67,3.672-3.67h24.485C694.002,356.894,695.647,358.535,695.647,360.563L695.647,360.563z" transform="matrix(1, 0, 0, 0.9999999999999999, 2.842170943040401e-14, 0)"/><path fill="#299691" d="M734.667,187.023c0,1.479-1.198,2.675-2.675,2.675h-17.834c-1.48,0-2.677-1.196-2.677-2.675l0,0&#10;&#9;&#9;c0-1.479,1.196-2.679,2.677-2.679h17.834C733.469,184.345,734.667,185.545,734.667,187.023L734.667,187.023z" transform="matrix(1, 0, 0, 0.9999999999999999, 2.842170943040401e-14, 0)"/><path fill="#299691" d="M728.959,286.209c0,1.696-1.379,3.082-3.08,3.082h-30.247c-1.701,0-3.083-1.386-3.083-3.082l0,0&#10;&#9;&#9;c0-1.699,1.382-3.089,3.083-3.089h30.247C727.58,283.12,728.959,284.51,728.959,286.209L728.959,286.209z" transform="matrix(1, 0, 0, 0.9999999999999999, 2.842170943040401e-14, 0)"/><path fill="#299691" d="M702.175,416.138c0,1.7-1.382,3.078-3.084,3.078h-30.246c-1.7,0-3.08-1.378-3.08-3.078l0,0&#10;&#9;&#9;c0-1.704,1.38-3.082,3.08-3.082h30.246C700.792,413.056,702.175,414.434,702.175,416.138L702.175,416.138z" transform="matrix(1, 0, 0, 0.9999999999999999, 2.842170943040401e-14, 0)"/><path fill="#728530" d="M904.974,325.992l-23.816-1.301l-1.525,12.009l-25.389,11.808c-2.396-11.974,0.255-24.877,8.4-35.218&#10;&#9;&#9;&#9;c14.759-18.75,41.912-21.982,60.662-7.229c2.009,1.587,3.824,3.307,5.47,5.141l-27.007,2.749L904.974,325.992z" transform="matrix(1, 0, 0, 0.9999999999999999, 2.842170943040401e-14, 0)"/><path fill="#AD6534" d="M858.293,346.046c-5.997,0-10.855,4.854-10.855,10.855v11.854l-8.73,15.114h8.73v34.866l-8.73,15.121h8.73&#10;&#9;&#9;&#9;v40.666l-8.73,15.121h8.73v60.333c0,0.166,0.016,0.32,0.023,0.483h12.303V346.046H858.293z" transform="matrix(1, 0, 0, 0.9999999999999999, 2.842170943040401e-14, 0)"/><path fill="#94552B" d="M880.816,460.992l-8.726-15.122v-34.854h8.726l-8.726-15.122v-38.992c0-6.001-4.863-10.855-10.855-10.855&#10;&#9;&#9;&#9;h-1.472V550.46h12.3c0.008-0.163,0.027-0.317,0.027-0.483v-33.194h8.726l-8.726-15.122v-40.668H880.816z" transform="matrix(1, 0, 0, 0.9999999999999999, 2.842170943040401e-14, 0)"/><path fill="#7B8F33" d="M805.326,330.514l25.604-4.39l3.151,12.802l28.942,9.582c1.092-13.256-3.395-26.872-13.496-37.034&#10;&#9;&#9;&#9;c-18.312-18.436-48.094-18.537-66.525-0.225c-1.971,1.959-3.723,4.054-5.273,6.249l29.564-0.418L805.326,330.514z" transform="matrix(1, 0, 0, 0.9999999999999999, 2.842170943040401e-14, 0)"/><path fill="#607029" d="M836.775,384.706l2.636-13.457l6.915,0.844l10.155-12.477c-6.326-3.032-13.891-3.373-20.802-0.298&#10;&#9;&#9;&#9;c-12.531,5.575-18.177,20.255-12.597,32.783c0.6,1.348,1.305,2.594,2.093,3.775l5.343-14.661L836.775,384.706z" transform="matrix(1, 0, 0, 0.9999999999999999, 2.842170943040401e-14, 0)"/><path fill="#64752A" d="M882.017,384.706l-2.64-13.457l-6.914,0.844l-10.155-12.477c6.333-3.032,13.895-3.373,20.805-0.294&#10;&#9;&#9;&#9;c12.532,5.571,18.172,20.251,12.598,32.783c-0.597,1.344-1.305,2.59-2.095,3.771l-5.342-14.657L882.017,384.706z" transform="matrix(1, 0, 0, 0.9999999999999999, 2.842170943040401e-14, 0)"/><path d="M 844.2520141601562 430.6669921875 L 851.9169921875 417.38800048828125 L 851.9169921875 430.6669921875 Z" fill="#94552B" transform="matrix(1, 0, 0, 0.9999999999999999, 2.842170943040401e-14, 0)"/><path d="M 844.2520141601562 486.0740051269531 L 851.9169921875 472.7950134277344 L 851.9169921875 486.0740051269531 Z" fill="#94552B" transform="matrix(1, 0, 0, 0.9999999999999999, 2.842170943040401e-14, 0)"/><path d="M 876.1129760742188 513.968017578125 L 868.4509887695312 500.70001220703125 L 868.4509887695312 513.968017578125 Z" fill="#A35E2E" transform="matrix(1, 0, 0, 0.9999999999999999, 2.842170943040401e-14, 0)"/><path d="M 876.1129760742188 457.88299560546875 L 868.4509887695312 444.60400390625 L 868.4509887695312 457.88299560546875 Z" fill="#A35E2E" transform="matrix(1, 0, 0, 0.9999999999999999, 2.842170943040401e-14, 0)"/><path d="M 876.1129760742188 408.12701416015625 L 868.4509887695312 394.8529968261719 L 868.4509887695312 408.12701416015625 Z" fill="#A35E2E" transform="matrix(1, 0, 0, 0.9999999999999999, 2.842170943040401e-14, 0)"/><path fill="#607029" d="M842.803,561.319h33.926c4.119,0,7.461-3.346,7.461-7.464h-48.851&#10;&#9;&#9;&#9;C835.339,557.974,838.68,561.319,842.803,561.319z" transform="matrix(1, 0, 0, 0.9999999999999999, 2.842170943040401e-14, 0)"/><path fill="#7B8F33" d="M876.729,546.391h-33.926c-4.123,0-7.464,3.338-7.464,7.465h48.851&#10;&#9;&#9;&#9;C884.189,549.729,880.848,546.391,876.729,546.391z" transform="matrix(1, 0, 0, 0.9999999999999999, 2.842170943040401e-14, 0)"/><path fill="#728430" d="M806.921,370.958l25.813-18.59l10.352,12.4l36.995-5.01c-5.915-15.161-18.173-27.75-34.754-33.511&#10;&#9;&#9;&#9;c-30.054-10.441-62.883,5.459-73.328,35.509c-1.117,3.221-1.918,6.465-2.445,9.717l32.312-16.345L806.921,370.958z" transform="matrix(1, 0, 0, 0.9999999999999999, 2.842170943040401e-14, 0)"/><path fill="#879E38" d="M906.693,367.005l-20.147-14.51l-8.079,9.679l-28.885-3.91c4.622-11.831,14.193-21.657,27.131-26.159&#10;&#9;&#9;&#9;c23.465-8.149,49.094,4.262,57.242,27.715c0.875,2.513,1.495,5.048,1.912,7.584l-25.226-12.752L906.693,367.005z" transform="matrix(1, 0, 0, 0.9999999999999999, 2.842170943040401e-14, 0)"/><path fill="#728530" d="M474.741,339.426l-22.125-1.208l-1.421,11.157l-23.583,10.964c-2.225-11.119,0.24-23.104,7.803-32.709&#10;&#9;&#9;&#9;c13.708-17.417,38.935-20.422,56.352-6.717c1.866,1.471,3.55,3.074,5.082,4.777l-25.089,2.555L474.741,339.426z" transform="matrix(1, 0, 0, 0.9999999999999999, 2.842170943040401e-14, 0)"/><path fill="#AD6534" d="M431.377,358.047c-5.571,0-10.087,4.514-10.087,10.085v11.014l-8.108,14.045h8.108v32.385l-8.108,14.045&#10;&#9;&#9;&#9;h8.108v37.778l-8.108,14.045h8.108v56.046c0,0.147,0.018,0.302,0.023,0.449h11.428V358.047H431.377z" transform="matrix(1, 0, 0, 0.9999999999999999, 2.842170943040401e-14, 0)"/><path fill="#94552B" d="M452.3,464.836l-8.109-14.045v-32.392h8.109l-8.109-14.045v-36.221c0-5.571-4.518-10.085-10.083-10.085&#10;&#9;&#9;&#9;h-1.367v189.893h11.427c0.006-0.147,0.023-0.302,0.023-0.449v-30.832h8.109l-8.109-14.053v-37.77H452.3z" transform="matrix(1, 0, 0, 0.9999999999999999, 2.842170943040401e-14, 0)"/><path fill="#7B8F33" d="M382.175,343.622l23.781-4.077l2.93,11.889l26.885,8.904c1.014-12.303-3.158-24.955-12.538-34.409&#10;&#9;&#9;&#9;c-17.011-17.119-44.676-17.205-61.797-0.205c-1.829,1.827-3.459,3.775-4.897,5.807l27.461-0.379L382.175,343.622z" transform="matrix(1, 0, 0, 0.9999999999999999, 2.842170943040401e-14, 0)"/><path fill="#607029" d="M411.388,393.962l2.448-12.501l6.422,0.791l9.433-11.599c-5.877-2.811-12.904-3.128-19.324-0.267&#10;&#9;&#9;&#9;c-11.64,5.18-16.879,18.811-11.702,30.452c0.556,1.243,1.214,2.412,1.946,3.504l4.963-13.62L411.388,393.962z" transform="matrix(1, 0, 0, 0.9999999999999999, 2.842170943040401e-14, 0)"/><path fill="#64752A" d="M453.412,393.962l-2.451-12.501l-6.419,0.791l-9.434-11.592c5.88-2.818,12.905-3.135,19.324-0.274&#10;&#9;&#9;&#9;c11.642,5.18,16.877,18.811,11.702,30.452c-0.554,1.243-1.212,2.412-1.947,3.504l-4.961-13.62L453.412,393.962z" transform="matrix(1, 0, 0, 0.9999999999999999, 2.842170943040401e-14, 0)"/><path d="M 418.33099365234375 436.6600036621094 L 425.4519958496094 424.32598876953125 L 425.4519958496094 436.6600036621094 Z" fill="#94552B" transform="matrix(1, 0, 0, 0.9999999999999999, 2.842170943040401e-14, 0)"/><path d="M 418.33099365234375 488.1300048828125 L 425.4519958496094 475.7959899902344 L 425.4519958496094 488.1300048828125 Z" fill="#94552B" transform="matrix(1, 0, 0, 0.9999999999999999, 2.842170943040401e-14, 0)"/><path d="M 447.92999267578125 514.0449829101562 L 440.81201171875 501.71099853515625 L 440.81201171875 514.0449829101562 Z" fill="#A35E2E" transform="matrix(1, 0, 0, 0.9999999999999999, 2.842170943040401e-14, 0)"/><path d="M 447.92999267578125 461.94000244140625 L 440.81201171875 449.6099853515625 L 440.81201171875 461.94000244140625 Z" fill="#A35E2E" transform="matrix(1, 0, 0, 0.9999999999999999, 2.842170943040401e-14, 0)"/><path d="M 447.92999267578125 415.718994140625 L 440.81201171875 403.3890075683594 L 440.81201171875 415.718994140625 Z" fill="#A35E2E" transform="matrix(1, 0, 0, 0.9999999999999999, 2.842170943040401e-14, 0)"/><path fill="#607029" d="M416.985,558.021h31.513c3.827,0,6.932-3.097,6.932-6.93h-45.379&#10;&#9;&#9;&#9;C410.052,554.924,413.156,558.021,416.985,558.021z" transform="matrix(1, 0, 0, 0.9999999999999999, 2.842170943040401e-14, 0)"/><path fill="#7B8F33" d="M448.499,544.161h-31.513c-3.829,0-6.934,3.104-6.934,6.93h45.379&#10;&#9;&#9;&#9;C455.431,547.266,452.325,544.161,448.499,544.161z" transform="matrix(1, 0, 0, 0.9999999999999999, 2.842170943040401e-14, 0)"/><path fill="#728430" d="M383.654,381.198l23.976-17.274l9.621,11.522l34.365-4.654c-5.496-14.084-16.882-25.775-32.286-31.13&#10;&#9;&#9;&#9;c-27.917-9.698-58.414,5.072-68.116,32.988c-1.036,2.981-1.779,6-2.272,9.021l30.017-15.18L383.654,381.198z" transform="matrix(1, 0, 0, 0.9999999999999999, 2.842170943040401e-14, 0)"/><path fill="#879E38" d="M476.336,377.528l-18.714-13.477l-7.51,8.986l-26.825-3.631c4.29-10.995,13.176-20.124,25.201-24.305&#10;&#9;&#9;&#9;c21.794-7.573,45.602,3.964,53.176,25.752c0.808,2.331,1.386,4.692,1.773,7.046l-23.43-11.854L476.336,377.528z" transform="matrix(1, 0, 0, 0.9999999999999999, 2.842170943040401e-14, 0)"/><path d="M 524.4520263671875 543.6810302734375 L 519.905029296875 552.135986328125 L 655.697998046875 552.135986328125 L 664.8189697265625 546.4990234375 L 653.1480102539062 534.27001953125 L 661.155029296875 519.3800048828125 L 644.9340209960938 514.6300048828125 L 644.4210205078125 497.7279968261719 L 627.9959716796875 501.718994140625 L 619.10400390625 487.343994140625 L 606.8740234375 499.0090026855469 L 591.9860229492188 491.0069885253906 L 587.2319946289062 507.2279968261719 L 570.3319702148438 507.739013671875 L 571.1680297851562 511.1809997558594 L 564.3660278320312 512.833984375 L 558.0689697265625 502.6510009765625 L 549.4119873046875 510.9169921875 L 538.8690185546875 505.2449951171875 L 535.5050048828125 516.7360229492188 L 523.5419921875 517.0960083007812 L 526.3679809570312 528.7219848632812 L 516.18798828125 535.0170288085938 Z" fill="#8B8CC2" transform="matrix(1, 0, 0, 0.9999999999999999, 2.842170943040401e-14, 0)"/><path d="M 579.85302734375 545.7260131835938 L 576.4929809570312 551.97802734375 L 635.7639770507812 551.97802734375 L 644.5089721679688 546.5650024414062 L 636.4149780273438 538.0830078125 L 641.968017578125 527.7540283203125 L 630.7139892578125 524.4520263671875 L 630.3619995117188 512.7369995117188 L 618.9660034179688 515.5050048828125 L 612.7969970703125 505.5320129394531 L 604.31298828125 513.6229858398438 L 593.9840087890625 508.06298828125 L 590.6859741210938 519.322021484375 L 578.9630126953125 519.6790161132812 L 581.7310180664062 531.0759887695312 L 571.7589721679688 537.2420043945312 Z" fill="#7979A8" transform="matrix(1, 0, 0, 0.9999999999999999, 2.842170943040401e-14, 0)"/><path fill="#607029" d="M953.417,550.433c0,0.573,0.027,1.138,0.043,1.703h47.89v-49.639&#10;&#9;&#9;C974.877,502.497,953.417,523.956,953.417,550.433z" transform="matrix(1, 0, 0, 0.9999999999999999, 2.842170943040401e-14, 0)"/><path fill="#536123" d="M1049.285,550.433c0-26.477-21.46-47.936-47.936-47.936v49.639h47.889&#10;&#9;&#9;C1049.262,551.57,1049.285,551.006,1049.285,550.433z" transform="matrix(1, 0, 0, 0.9999999999999999, 2.842170943040401e-14, 0)"/><path fill="#607029" d="M1007.771,545.722v-36.311c18.327,2.85,32.726,17.739,34.828,36.311H1007.771z" transform="matrix(1, 0, 0, 0.9999999999999999, 2.842170943040401e-14, 0)"/><path fill="#728530" d="M990.842,392.057l-16.802-0.921l-1.077,8.475l-17.9,8.32c-1.692-8.443,0.178-17.545,5.923-24.835&#10;&#9;&#9;&#9;c10.406-13.225,29.563-15.501,42.783-5.095c1.413,1.115,2.698,2.331,3.859,3.631l-19.051,1.928L990.842,392.057z" transform="matrix(1, 0, 0, 0.9999999999999999, 2.842170943040401e-14, 0)"/><path fill="#AD6534" d="M957.916,406.188c-4.231,0-7.658,3.435-7.658,7.662v8.362l-6.155,10.662h6.155v24.583l-6.155,10.67h6.155&#10;&#9;&#9;&#9;v28.679l-6.155,10.666h6.155v42.555c0,0.116,0.015,0.228,0.02,0.341h8.676v-144.18H957.916z" transform="matrix(1, 0, 0, 0.9999999999999999, 2.842170943040401e-14, 0)"/><path fill="#94552B" d="M973.8,487.267l-6.156-10.662v-24.591h6.156l-6.156-10.662V413.85c0-4.228-3.429-7.662-7.657-7.662h-1.033&#10;&#9;&#9;&#9;v144.18h8.676c0.004-0.113,0.015-0.225,0.015-0.341v-23.411h6.156l-6.156-10.665v-28.684H973.8z" transform="matrix(1, 0, 0, 0.9999999999999999, 2.842170943040401e-14, 0)"/><path fill="#7B8F33" d="M920.561,395.244l18.056-3.101l2.223,9.032l20.413,6.756c0.771-9.342-2.392-18.951-9.52-26.121&#10;&#9;&#9;&#9;c-12.915-13-33.917-13.066-46.921-0.155c-1.386,1.378-2.625,2.865-3.716,4.406l20.851-0.291L920.561,395.244z" transform="matrix(1, 0, 0, 0.9999999999999999, 2.842170943040401e-14, 0)"/><path fill="#607029" d="M942.739,433.462l1.862-9.497l4.878,0.604l7.158-8.808c-4.464-2.129-9.799-2.377-14.677-0.201&#10;&#9;&#9;&#9;c-8.833,3.925-12.811,14.282-8.88,23.12c0.422,0.94,0.921,1.828,1.479,2.656l3.771-10.34L942.739,433.462z" transform="matrix(1, 0, 0, 0.9999999999999999, 2.842170943040401e-14, 0)"/><path fill="#64752A" d="M974.645,433.462l-1.859-9.497l-4.873,0.604l-7.162-8.804c4.463-2.133,9.798-2.381,14.669-0.205&#10;&#9;&#9;&#9;c8.842,3.925,12.814,14.282,8.888,23.12c-0.422,0.94-0.921,1.828-1.479,2.656l-3.771-10.34L974.645,433.462z" transform="matrix(1, 0, 0, 0.9999999999999999, 2.842170943040401e-14, 0)"/><path d="M 948.0120239257812 465.87701416015625 L 953.4169921875 456.5159912109375 L 953.4169921875 465.87701416015625 Z" fill="#94552B" transform="matrix(1, 0, 0, 0.9999999999999999, 2.842170943040401e-14, 0)"/><path d="M 948.0120239257812 504.9549865722656 L 953.4169921875 495.5989990234375 L 953.4169921875 504.9549865722656 Z" fill="#94552B" transform="matrix(1, 0, 0, 0.9999999999999999, 2.842170943040401e-14, 0)"/><path d="M 970.4849853515625 524.6339721679688 L 965.0780029296875 515.2689819335938 L 965.0780029296875 524.6339721679688 Z" fill="#A35E2E" transform="matrix(1, 0, 0, 0.9999999999999999, 2.842170943040401e-14, 0)"/><path d="M 970.4849853515625 485.07598876953125 L 965.0780029296875 475.7149963378906 L 965.0780029296875 485.07598876953125 Z" fill="#A35E2E" transform="matrix(1, 0, 0, 0.9999999999999999, 2.842170943040401e-14, 0)"/><path d="M 970.4849853515625 449.9849853515625 L 965.0780029296875 440.6239929199219 L 965.0780029296875 449.9849853515625 Z" fill="#A35E2E" transform="matrix(1, 0, 0, 0.9999999999999999, 2.842170943040401e-14, 0)"/><path fill="#607029" d="M946.991,558.021h23.921c2.911,0,5.265-2.354,5.265-5.258h-34.451&#10;&#9;&#9;&#9;C941.726,555.667,944.083,558.021,946.991,558.021z" transform="matrix(1, 0, 0, 0.9999999999999999, 2.842170943040401e-14, 0)"/><path fill="#7B8F33" d="M970.912,547.498h-23.921c-2.908,0-5.266,2.354-5.266,5.265h34.451&#10;&#9;&#9;&#9;C976.177,549.853,973.823,547.498,970.912,547.498z" transform="matrix(1, 0, 0, 0.9999999999999999, 2.842170943040401e-14, 0)"/><path fill="#728430" d="M921.684,423.768l18.206-13.113l7.298,8.746l26.094-3.539c-4.17-10.693-12.814-19.566-24.51-23.631&#10;&#9;&#9;&#9;c-21.195-7.363-44.355,3.848-51.719,25.048c-0.79,2.269-1.351,4.557-1.726,6.845l22.791-11.525L921.684,423.768z" transform="matrix(1, 0, 0, 0.9999999999999999, 2.842170943040401e-14, 0)"/><path fill="#879E38" d="M992.054,420.984l-14.212-10.24l-5.703,6.829l-20.367-2.76c3.26-8.343,10.008-15.276,19.137-18.447&#10;&#9;&#9;&#9;c16.55-5.753,34.622,3.004,40.37,19.551c0.616,1.765,1.059,3.562,1.348,5.35l-17.789-9.005L992.054,420.984z" transform="matrix(1, 0, 0, 0.9999999999999999, 2.842170943040401e-14, 0)"/><g transform="matrix(1, 0, 0, 0.9999999999999999, 2.842170943040401e-14, 0)">
			<path d="M 685.4210205078125 453.38800048828125 L 685.4210205078125 525.9110107421875 L 794.43798828125 525.9110107421875 L 794.43798828125 458.59100341796875 Z" fill="#E3A365"/>
			<path d="M 794.43798828125 444.9519958496094 L 685.4210205078125 444.9519958496094 L 685.4210205078125 453.38800048828125 L 794.43798828125 458.59100341796875 Z" fill="#A6774B"/>
		</g><path d="M 696.393982 397.078003 H 783.464981 V 402.196003 H 696.393982 V 397.078003 Z" fill="#CF965C" transform="matrix(1, 0, 0, 0.9999999999999999, 2.842170943040401e-14, 0)"/><path d="M 660.802978515625 446.17999267578125 L 696.5430297851562 402.1960144042969 L 783.4650268554688 402.1960144042969 L 819.2069702148438 446.17999267578125 Z" fill="#B58252" transform="matrix(1, 0, 0, 0.9999999999999999, 2.842170943040401e-14, 0)"/><path d="M 660.802979 446.179993 H 819.206985 V 449.063993 H 660.802979 V 446.179993 Z" fill="#E3A365" transform="matrix(1, 0, 0, 0.9999999999999999, 2.842170943040401e-14, 0)"/><path fill="#E3A365" d="M785.414,396.351c0,1.212-0.986,2.195-2.193,2.195h-86.58c-1.208,0-2.192-0.983-2.192-2.195l0,0&#10;&#9;&#9;&#9;c0-1.208,0.983-2.191,2.192-2.191h86.58C784.428,394.16,785.414,395.143,785.414,396.351L785.414,396.351z" transform="matrix(1, 0, 0, 0.9999999999999999, 2.842170943040401e-14, 0)"/><path fill="#9C7046" d="M759.683,411.039c0,1.463-1.185,2.64-2.645,2.64h-55.15c-1.456,0-2.642-1.177-2.642-2.64l0,0&#10;&#9;&#9;&#9;c0-1.463,1.186-2.645,2.642-2.645h55.15C758.498,408.395,759.683,409.576,759.683,411.039L759.683,411.039z" transform="matrix(1, 0, 0, 0.9999999999999999, 2.842170943040401e-14, 0)"/><path fill="#9C7046" d="M783.747,419.804c0,1.456-1.181,2.644-2.643,2.644h-55.15c-1.457,0-2.642-1.188-2.642-2.644l0,0&#10;&#9;&#9;&#9;c0-1.463,1.185-2.648,2.642-2.648h55.15C782.566,417.156,783.747,418.34,783.747,419.804L783.747,419.804z" transform="matrix(1, 0, 0, 0.9999999999999999, 2.842170943040401e-14, 0)"/><path fill="#9C7046" d="M750.158,428.568c0,1.463-1.183,2.645-2.642,2.645h-55.15c-1.459,0-2.643-1.181-2.643-2.645l0,0&#10;&#9;&#9;&#9;c0-1.455,1.183-2.648,2.643-2.648h55.15C748.976,425.92,750.158,427.113,750.158,428.568L750.158,428.568z" transform="matrix(1, 0, 0, 0.9999999999999999, 2.842170943040401e-14, 0)"/><path fill="#9C7046" d="M797.171,437.341c0,1.456-1.183,2.632-2.646,2.632h-55.146c-1.46,0-2.646-1.177-2.646-2.632l0,0&#10;&#9;&#9;&#9;c0-1.471,1.187-2.652,2.646-2.652h55.146C795.988,434.689,797.171,435.87,797.171,437.341L797.171,437.341z" transform="matrix(1, 0, 0, 0.9999999999999999, 2.842170943040401e-14, 0)"/><path fill="#C98F5B" d="M802.242,529.504c0,1.982-1.606,3.593-3.591,3.593H681.208c-1.986,0-3.592-1.61-3.592-3.593l0,0&#10;&#9;&#9;&#9;c0-1.986,1.606-3.593,3.592-3.593h117.443C800.636,525.911,802.242,527.518,802.242,529.504L802.242,529.504z" transform="matrix(1, 0, 0, 0.9999999999999999, 2.842170943040401e-14, 0)"/><path fill="#B58252" d="M766.194,471.247c0,0.963-0.774,1.734-1.732,1.734h-48.918c-0.956,0-1.732-0.771-1.732-1.734l0,0&#10;&#9;&#9;&#9;c0-0.953,0.776-1.727,1.732-1.727h48.918C765.42,469.521,766.194,470.294,766.194,471.247L766.194,471.247z" transform="matrix(1, 0, 0, 0.9999999999999999, 2.842170943040401e-14, 0)"/><path fill="#C98F5B" d="M715.319,479.485c0,1.281-1.043,2.323-2.33,2.323H695.86c-1.285,0-2.325-1.042-2.325-2.323l0,0&#10;&#9;&#9;&#9;c0-1.289,1.04-2.331,2.325-2.331h17.129C714.276,477.155,715.319,478.196,715.319,479.485L715.319,479.485z" transform="matrix(1, 0, 0, 0.9999999999999999, 2.842170943040401e-14, 0)"/><path fill="#C98F5B" d="M715.319,492.393c0,1.285-1.043,2.322-2.33,2.322H695.86c-1.285,0-2.325-1.037-2.325-2.322l0,0&#10;&#9;&#9;&#9;c0-1.285,1.04-2.323,2.325-2.323h17.129C714.276,490.07,715.319,491.107,715.319,492.393L715.319,492.393z" transform="matrix(1, 0, 0, 0.9999999999999999, 2.842170943040401e-14, 0)"/><path fill="#C98F5B" d="M715.319,505.304c0,1.281-1.043,2.323-2.33,2.323H695.86c-1.285,0-2.325-1.042-2.325-2.323l0,0&#10;&#9;&#9;&#9;c0-1.289,1.04-2.331,2.325-2.331h17.129C714.276,502.973,715.319,504.015,715.319,505.304L715.319,505.304z" transform="matrix(1, 0, 0, 0.9999999999999999, 2.842170943040401e-14, 0)"/><path fill="#C98F5B" d="M715.319,518.215c0,1.285-1.043,2.331-2.33,2.331H695.86c-1.285,0-2.325-1.046-2.325-2.331l0,0&#10;&#9;&#9;&#9;c0-1.285,1.04-2.323,2.325-2.323h17.129C714.276,515.892,715.319,516.93,715.319,518.215L715.319,518.215z" transform="matrix(1, 0, 0, 0.9999999999999999, 2.842170943040401e-14, 0)"/><path fill="#C98F5B" d="M787.08,479.485c0,1.281-1.041,2.323-2.329,2.323h-17.127c-1.287,0-2.326-1.042-2.326-2.323l0,0&#10;&#9;&#9;&#9;c0-1.289,1.039-2.331,2.326-2.331h17.127C786.039,477.155,787.08,478.196,787.08,479.485L787.08,479.485z" transform="matrix(1, 0, 0, 0.9999999999999999, 2.842170943040401e-14, 0)"/><path fill="#C98F5B" d="M787.08,492.393c0,1.285-1.041,2.322-2.329,2.322h-17.127c-1.287,0-2.326-1.037-2.326-2.322l0,0&#10;&#9;&#9;&#9;c0-1.285,1.039-2.323,2.326-2.323h17.127C786.039,490.07,787.08,491.107,787.08,492.393L787.08,492.393z" transform="matrix(1, 0, 0, 0.9999999999999999, 2.842170943040401e-14, 0)"/><path fill="#C98F5B" d="M787.08,505.304c0,1.281-1.041,2.323-2.329,2.323h-17.127c-1.287,0-2.326-1.042-2.326-2.323l0,0&#10;&#9;&#9;&#9;c0-1.289,1.039-2.331,2.326-2.331h17.127C786.039,502.973,787.08,504.015,787.08,505.304L787.08,505.304z" transform="matrix(1, 0, 0, 0.9999999999999999, 2.842170943040401e-14, 0)"/><path fill="#C98F5B" d="M787.08,518.215c0,1.285-1.041,2.331-2.329,2.331h-17.127c-1.287,0-2.326-1.046-2.326-2.331l0,0&#10;&#9;&#9;&#9;c0-1.285,1.039-2.323,2.326-2.323h17.127C786.039,515.892,787.08,516.93,787.08,518.215L787.08,518.215z" transform="matrix(1, 0, 0, 0.9999999999999999, 2.842170943040401e-14, 0)"/><path d="M 749.1229858398438 472.37701416015625 L 723.3900146484375 472.37701416015625 L 723.3900146484375 509.92999267578125 L 745.1380004882812 505.3039855957031 Z" fill="#785537" transform="matrix(1, 0, 0, 0.9999999999999999, 2.842170943040401e-14, 0)"/><path d="M 749.1229858398438 472.37701416015625 L 745.1380004882812 505.3039855957031 L 723.3900146484375 509.92999267578125 L 723.3900146484375 525.3070068359375 L 756.6199951171875 525.3070068359375 L 756.6199951171875 472.37701416015625 Z" fill="#5E432B" transform="matrix(1, 0, 0, 0.9999999999999999, 2.842170943040401e-14, 0)"/><path d="M 687.6489868164062 562.7670288085938 L 697.2520141601562 562.7670288085938 L 697.2520141601562 536.4769897460938 L 687.6489868164062 535.68701171875 Z" fill="#966B45" transform="matrix(1, 0, 0, 0.9999999999999999, 2.842170943040401e-14, 0)"/><path d="M 687.6489868164062 533.0969848632812 L 687.6489868164062 535.68701171875 L 697.2520141601562 536.4769897460938 L 697.2520141601562 533.0969848632812 Z" fill="#785537" transform="matrix(1, 0, 0, 0.9999999999999999, 2.842170943040401e-14, 0)"/><path d="M 782.60498046875 543.4219970703125 L 782.60498046875 562.7670288085938 L 792.2100219726562 562.7670288085938 L 792.2100219726562 544.1959838867188 Z" fill="#966B45" transform="matrix(1, 0, 0, 0.9999999999999999, 2.842170943040401e-14, 0)"/><path d="M 792.2100219726562 533.0969848632812 L 782.60498046875 533.0969848632812 L 782.60498046875 543.4219970703125 L 792.2100219726562 544.1959838867188 Z" fill="#785537" transform="matrix(1, 0, 0, 0.9999999999999999, 2.842170943040401e-14, 0)"/>
</svg>